<svg width="25" height="25" viewBox="0 0 25 25" fill="none" xmlns="http://www.w3.org/2000/svg">
<circle cx="12.5" cy="12.5" r="12.5" fill="#2A6EBB"/>
<path d="M8.22813 7.22813C8.5323 6.92396 9.0253 6.92396 9.32931 7.22813L13 10.8988L16.6707 7.22813C16.9749 6.92396 17.4679 6.92396 17.7719 7.22813C18.076 7.5323 18.076 8.02531 17.7719 8.32932L14.1012 12L17.7719 15.6707C18.076 15.9749 18.076 16.4679 17.7719 16.7719C17.4677 17.0761 16.9747 17.0759 16.6707 16.7719L13 13.1012L9.32931 16.7719C9.02514 17.0759 8.53214 17.0759 8.22813 16.7719C7.92396 16.4678 7.92396 15.9748 8.22813 15.6707L11.8988 12L8.22813 8.32932C7.92396 8.02515 7.92396 7.53214 8.22813 7.22813Z" fill="white"/>
</svg>