<svg xmlns="http://www.w3.org/2000/svg" viewBox="0 0 13 32">
  <title>sk</title>
  <g id="_13_-_Filter" data-name="13 - Filter">
    <path d="M12.6572,12.19769H10.9283V10.41323a.3428.3428,0,0,0-.3428-.3428H9.81241a.3428.3428,0,0,0-.3428.3428v1.78446H.3428A.3428.3428,0,0,0,0,12.54049v.77309a.3428.3428,0,0,0,.3428.3428H9.46961v1.78445a.3428.3428,0,0,0,.3428.3428h.77309a.3428.3428,0,0,0,.3428-.3428V13.65638h1.7289A.3428.3428,0,0,0,13,13.31358v-.77309A.3428.3428,0,0,0,12.6572,12.19769Z"/>
    <path d="M.3428,19.80231H3.04416v1.78446a.3428.3428,0,0,0,.3428.3428h.77309a.3428.3428,0,0,0,.3428-.3428V19.80231H12.6572A.3428.3428,0,0,0,13,19.45951v-.77309a.3428.3428,0,0,0-.3428-.3428H4.50285V16.55917a.3428.3428,0,0,0-.3428-.3428H3.387a.3428.3428,0,0,0-.3428.3428v1.78445H.3428A.3428.3428,0,0,0,0,18.68642v.77309A.3428.3428,0,0,0,.3428,19.80231Z"/>
  </g>
</svg>
