<svg version="1.1" xmlns="http://www.w3.org/2000/svg" xmlns:xlink="http://www.w3.org/1999/xlink" x="0px" y="0px"
	 viewBox="0 0 14 32" style="enable-background:new 0 0 14 32;" xml:space="preserve">
		<path d="M6.9,13.6l-3.4-3.4l-3.4,3.4C0,13.7,0,13.9,0.1,14l0.5,0.5c0.1,0.1,0.3,0.1,0.4,0l1.9-1.9v8.9c0,0.1,0.1,0.3,0.3,0.3h0.8
			c0.1,0,0.3-0.1,0.3-0.3v-8.9L6,14.5c0.1,0.1,0.3,0.1,0.4,0L6.9,14C7,13.9,7,13.7,6.9,13.6z"/>
		<path d="M7.1,18.4l3.4,3.4l3.4-3.4c0.1-0.1,0.1-0.3,0-0.4l-0.5-0.5c-0.1-0.1-0.3-0.1-0.4,0l-1.9,1.9v-8.9c0-0.1-0.1-0.3-0.3-0.3
			h-0.8c-0.1,0-0.3,0.1-0.3,0.3v8.9L8,17.5c-0.1-0.1-0.3-0.1-0.4,0L7.1,18C7,18.1,7,18.3,7.1,18.4z"/>
</svg>
